PathFileType  4	(X/Y/Z) /Users/mattheworga/Documents/Git/desktop-development/pyqt5/sandbox-thesis/process/test_subjects/S00_Demo_Batch/S00_P00/Trial_1/pose-3d
DataRate	CameraRate	NumFrames	NumMarkers	Units	OrigDataRate	OrigDataStartFrame	OrigNumFrames
60.0	60.0	10	23	m	60.0	33	99
Frame#	Time	Hip			RHip			RKnee			RAnkle			RBigToe			RSmallToe			RHeel			LHip			LKnee			LAnkle			LBigToe			LSmallToe			LHeel			Neck			Head			Nose			RShoulder			RElbow			RWrist			LShoulder			LElbow			LWrist			CHip			
		X1	Y1	Z1	X2	Y2	Z2	X3	Y3	Z3	X4	Y4	Z4	X5	Y5	Z5	X6	Y6	Z6	X7	Y7	Z7	X8	Y8	Z8	X9	Y9	Z9	X10	Y10	Z10	X11	Y11	Z11	X12	Y12	Z12	X13	Y13	Z13	X14	Y14	Z14	X15	Y15	Z15	X16	Y16	Z16	X17	Y17	Z17	X18	Y18	Z18	X19	Y19	Z19	X20	Y20	Z20	X21	Y21	Z21	X22	Y22	Z22	X23	Y23	Z23	

34	0.5500000	-0.0997179	0.9167832	-1.1413921	-0.1843745	0.9574136	-1.1280118	-0.4562362	0.6560372	-0.9986166	-0.5736089	0.2895778	-1.1332610	-0.6477734	0.2253145	-0.9694882	-0.6731282	0.2390431	-1.0379795	-0.5670242	0.2446290	-1.1676149	-0.0150411	0.8620528	-1.1058649	-0.0652813	0.4841697	-0.9711772	-0.0207366	0.1495113	-1.1473876	-0.0320732	0.0818894	-0.9879478	0.0181771	0.0768495	-1.0241276	-0.0097332	0.1041507	-1.2015327	0.2229851	1.3610067	-1.0966972	0.3336414	1.5710744	-0.9492325	0.2533331	1.4240623	-0.9209271	0.0412761	1.4148266	-1.1872585	-0.2156299	1.4135291	-1.2576016	-0.3028639	1.5493182	-1.0514924	0.3335152	1.2011798	-1.1226528	0.3492736	0.9197299	-1.1015196	0.3254973	0.6698878	-1.0159792	-0.0997078	0.9097332	-1.1169384
35	0.5666667	-0.1027412	0.9179121	-1.1352381	-0.1873146	0.9587024	-1.1213636	-0.4641125	0.6624989	-0.9909791	-0.5978366	0.2994127	-1.1185013	-0.6700237	0.2376965	-0.9540493	-0.6962788	0.2517643	-1.0209512	-0.5941089	0.2546924	-1.1516217	-0.0181520	0.8605605	-1.1006189	-0.0640964	0.4832743	-0.9675086	-0.0214729	0.1506870	-1.1470496	-0.0325784	0.0826523	-0.9869763	0.0171934	0.0776941	-1.0224887	-0.0097451	0.1051700	-1.2023686	0.2273879	1.3563273	-1.0902577	0.3415766	1.5634877	-0.9515525	0.2600762	1.4167747	-0.9196758	0.0460761	1.4129929	-1.1788374	-0.2106813	1.4194438	-1.2476708	-0.2947818	1.5603687	-1.0443964	0.3348979	1.1939880	-1.1183069	0.3509150	0.9134087	-1.0978916	0.3276781	0.6635667	-1.0111929	-0.1027333	0.9096315	-1.1109913
36	0.5833333	-0.1053953	0.9192874	-1.1285364	-0.1899062	0.9607089	-1.1153288	-0.4719065	0.6691861	-0.9835326	-0.6207812	0.3092035	-1.1051292	-0.6905289	0.2492554	-0.9401565	-0.7179959	0.2634430	-1.0059509	-0.6194335	0.2647429	-1.1374966	-0.0208381	0.8597455	-1.0959255	-0.0629135	0.4826677	-0.9640913	-0.0220151	0.1518447	-1.1468169	-0.0331173	0.0829303	-0.9864843	0.0161358	0.0779118	-1.0216704	-0.0098371	0.1061128	-1.2031280	0.2313977	1.3518107	-1.0839116	0.3495424	1.5548790	-0.9530559	0.2668050	1.4083645	-0.9181063	0.0504523	1.4112832	-1.1703182	-0.2059285	1.4261285	-1.2374126	-0.2853459	1.5712271	-1.0366124	0.3362240	1.1872537	-1.1144246	0.3524207	0.9080244	-1.0950527	0.3307825	0.6577692	-1.0069115	-0.1053721	0.9102272	-1.1056271
37	0.6000000	-0.1075853	0.9208123	-1.1208640	-0.1922571	0.9635070	-1.1095280	-0.4795702	0.6762845	-0.9761421	-0.6428577	0.3193758	-1.0928351	-0.7097603	0.2604683	-0.9273561	-0.7389798	0.2742595	-0.9925849	-0.6434516	0.2752868	-1.1250392	-0.0232449	0.8595734	-1.0915459	-0.0622209	0.4821718	-0.9608614	-0.0225806	0.1529669	-1.1464669	-0.0334735	0.0824202	-0.9867764	0.0149819	0.0772460	-1.0221490	-0.0103673	0.1069228	-1.2035123	0.2348787	1.3473864	-1.0778992	0.3574563	1.5450945	-0.9515073	0.2732597	1.3992147	-0.9157433	0.0544771	1.4096889	-1.1619556	-0.2015657	1.4332179	-1.2268466	-0.2747339	1.5817707	-1.0282703	0.3375957	1.1812532	-1.1110786	0.3538062	0.9035861	-1.0930563	0.3345790	0.6525427	-1.0030950	-0.1077510	0.9115402	-1.1005370
38	0.6166667	-0.1093383	0.9224817	-1.1121655	-0.1944913	0.9669453	-1.1037716	-0.4870002	0.6838175	-0.9686528	-0.6642696	0.3303987	-1.0811614	-0.7281246	0.2719365	-0.9152894	-0.7597729	0.2845915	-0.9802136	-0.6664727	0.2868183	-1.1137100	-0.0255473	0.8598847	-1.0873018	-0.0622966	0.4817032	-0.9577053	-0.0234058	0.1540520	-1.1458808	-0.0335334	0.0811143	-0.9879444	0.0135449	0.0757168	-1.0239852	-0.0115998	0.1076154	-1.2034321	0.2377260	1.3430721	-1.0722647	0.3647977	1.5339946	-0.9468453	0.2795610	1.3892414	-0.9137571	0.0581795	1.4082753	-1.1538694	-0.1976438	1.4402390	-1.2158548	-0.2632163	1.5919118	-1.0192148	0.3390254	1.1761532	-1.1081850	0.3551668	0.8999500	-1.0917533	0.3388096	0.6480239	-0.9997550	-0.1100193	0.9134150	-1.0955367
39	0.6333333	-0.1109367	0.9242168	-1.1031858	-0.1967059	0.9706368	-1.0981338	-0.4940862	0.6917037	-0.9608994	-0.6850297	0.3425447	-1.0695981	-0.7461419	0.2841328	-0.9039111	-0.7806688	0.2949205	-0.9683657	-0.6886247	0.2995412	-1.1027851	-0.0278574	0.8604468	-1.0832218	-0.0631420	0.4812920	-0.9545743	-0.0245725	0.1550375	-1.1450817	-0.0332693	0.0792899	-0.9899544	0.0118027	0.0735889	-1.0268944	-0.0136102	0.1081623	-1.2029902	0.2399306	1.3389236	-1.0669178	0.3709613	1.5217891	-0.9411022	0.2860178	1.3785093	-0.9133490	0.0614586	1.4071183	-1.1457788	-0.1940524	1.4467872	-1.2042404	-0.2509171	1.6015912	-1.0091036	0.3404275	1.1718930	-1.1055994	0.3565930	0.8968680	-1.0907802	0.3432867	0.6443580	-0.9969918	-0.1122817	0.9155418	-1.0906778
40	0.6500000	-0.1129284	0.9257159	-1.0957339	-0.1989213	0.9741177	-1.0928694	-0.5007518	0.6997887	-0.9528795	-0.7050123	0.3558047	-1.0576311	-0.7646387	0.2971222	-0.8933442	-0.8016824	0.3057231	-0.9568427	-0.7099183	0.3132590	-1.0915333	-0.0302248	0.8610664	-1.0794676	-0.0644589	0.4810255	-0.9515842	-0.0259085	0.1558212	-1.1441520	-0.0326847	0.0773365	-0.9927717	0.0102379	0.0713031	-1.0303670	-0.0161625	0.1085162	-1.2023057	0.2416141	1.3349608	-1.0617293	0.3759199	1.5094629	-0.9359567	0.2926481	1.3679225	-0.9141018	0.0641597	1.4062180	-1.1371801	-0.1906679	1.4526757	-1.1918783	-0.2377803	1.6106845	-0.9975757	0.3416666	1.1681965	-1.1032214	0.3581616	0.8940883	-1.0897804	0.3479218	0.6416318	-0.9950050	-0.1145731	0.9175921	-1.0861685
41	0.6666667	-0.1157602	0.9266417	-1.0916575	-0.2010610	0.9770807	-1.0881441	-0.5069562	0.7078260	-0.9447985	-0.7240697	0.3698853	-1.0449641	-0.7846589	0.3105065	-0.8834995	-0.8225069	0.3174006	-0.9454646	-0.7303920	0.3274478	-1.0794183	-0.0326661	0.8616603	-1.0761309	-0.0657679	0.4809709	-0.9489745	-0.0270835	0.1563297	-1.1432058	-0.0317667	0.0755999	-0.9963696	0.0097237	0.0694425	-1.0338195	-0.0187288	0.1086724	-1.2014872	0.2429705	1.3311810	-1.0564888	0.3802285	1.4985556	-0.9315139	0.2990911	1.3587347	-0.9145488	0.0662445	1.4054971	-1.1277463	-0.1874901	1.4579686	-1.1786534	-0.2237590	1.6190034	-0.9844046	0.3425709	1.1647590	-1.1009109	0.3599234	0.8914652	-1.0885744	0.3527033	0.6398132	-0.9938815	-0.1168635	0.9193705	-1.0821375
42	0.6833333	-0.1193184	0.9270180	-1.0909738	-0.2030392	0.9794773	-1.0838060	-0.5127129	0.7154947	-0.9368834	-0.7420903	0.3842374	-1.0317818	-0.8066496	0.3236625	-0.8740390	-0.8423628	0.3300658	-0.9340127	-0.7500919	0.3414408	-1.0663906	-0.0351617	0.8622668	-1.0731343	-0.0666337	0.4810929	-0.9470092	-0.0277735	0.1565739	-1.1424118	-0.0305424	0.0743921	-1.0006023	0.0107450	0.0684934	-1.0368633	-0.0207377	0.1086705	-1.2006873	0.2441428	1.3276410	-1.0508815	0.3845006	1.4903009	-0.9271895	0.3051743	1.3516580	-0.9138048	0.0678685	1.4048901	-1.1174382	-0.1846221	1.4628823	-1.1643632	-0.2090393	1.6263722	-0.9696493	0.3429359	1.1614608	-1.0984007	0.3617854	0.8889749	-1.0870737	0.3576384	0.6387138	-0.9933861	-0.1191004	0.9208720	-1.0784702
43	0.7000000	-0.1230135	0.9272945	-1.0917245	-0.2048943	0.9814689	-1.0794617	-0.5180613	0.7225013	-0.9292425	-0.7588835	0.3981685	-1.0186468	-0.8293264	0.3360530	-0.8646309	-0.8598404	0.3431966	-0.9223952	-0.7688094	0.3545574	-1.0529880	-0.0376347	0.8630388	-1.0702830	-0.0668418	0.4812763	-0.9458667	-0.0277786	0.1566987	-1.1419379	-0.0291156	0.0740068	-1.0051418	0.0129046	0.0685661	-1.0394719	-0.0218660	0.1086677	-1.2000684	0.2451519	1.3244844	-1.0446615	0.3890674	1.4850301	-0.9226191	0.3111447	1.3466054	-0.9121349	0.0692882	1.4044526	-1.1063821	-0.1821404	1.4676245	-1.1488147	-0.1940756	1.6326249	-0.9536456	0.3426161	1.1584031	-1.0954490	0.3634771	0.8866193	-1.0851440	0.3626989	0.6380479	-0.9930418	-0.1212645	0.9222538	-1.0748724
